<svg width="16" height="16" viewBox="0 0 16 16" fill="none" xmlns="http://www.w3.org/2000/svg">
<path d="M8.7229 1C12.7421 1 16 4.35819 16 8.5C16 12.6418 12.7416 16 8.7229 16C8.44445 16 8.16788 15.9841 7.89412 15.9517L7.6213 15.9145L7.75537 15.0062C8.07366 15.056 8.39664 15.0811 8.7229 15.0811C12.2494 15.0811 15.1084 12.1345 15.1084 8.5C15.1084 4.86547 12.2494 1.9189 8.7229 1.9189C5.19638 1.9189 2.33739 4.86547 2.33739 8.5C2.33739 9.49572 2.55208 10.4586 2.95756 11.3335L4.12057 10.6484L4.21479 14.1603L1 12.4862L2.18176 11.7901C1.7008 10.7765 1.4458 9.65708 1.4458 8.5C1.4458 4.3577 4.70418 1 8.7229 1ZM8.30429 4.52245L8.38914 4.52873L8.46836 4.54709L8.54383 4.57656L8.62493 4.62391L8.66383 4.65338L8.72008 4.70555L11.3095 7.42698C11.5538 7.68352 11.5669 8.11495 11.3391 8.38985C11.1319 8.64011 10.7967 8.67489 10.5544 8.48647L10.4845 8.42318L8.9254 6.78491L8.92587 11.8364C8.92587 12.0824 8.65961 12.2819 8.33148 12.2819C8.03053 12.2819 7.78209 12.1142 7.74271 11.8968L7.73709 11.8364L7.73662 6.75303L6.18266 8.41884C5.94078 8.67827 5.5578 8.66716 5.32763 8.3942C5.14154 8.17389 5.11247 7.84972 5.23576 7.59704L5.2892 7.50573L5.34967 7.43085L7.89131 4.70942L7.93584 4.66642L8.00053 4.61666L8.07788 4.57318L8.1196 4.55578L8.21898 4.5297L8.30523 4.52245H8.30429Z" fill="white"/>
</svg>
